<svg version="1.1" id="Icons_-_48px" xmlns="http://www.w3.org/2000/svg" x="0" y="0" viewBox="0 0 48 48" xml:space="preserve">
    <style>
        .st0{fill:none;stroke:#000;stroke-width:2;stroke-linecap:round;stroke-linejoin:round;stroke-miterlimit:10}
    </style>
    <path class="st0" d="M15 34h4c9.9 0 18-6.5 18-14.5S28.9 5 19 5 1 11.5 1 19.5c0 4.8 2.6 8.8 7 11.5-.3 5.1-3 8-3 8s6.1-.1 10-5z"/>
    <path class="st0" d="M42 18c3 3 5 6.7 5 9.5 0 4.8-2.6 8.8-7 11.5.3 5.1 3 8 3 8s-6.1-.1-10-5h-4c-4.1 0-7.9-1.1-11-3"/>
</svg>
